<svg width="110" height="104" viewBox="0 0 110 104" fill="none" xmlns="http://www.w3.org/2000/svg">
<path opacity="0.8" d="M39.5217 26H27.1304C24.8493 26 23 27.8493 23 30.1304V75.5652C23 77.8464 24.8493 79.6957 27.1304 79.6957H39.5217C41.8029 79.6957 43.6522 77.8464 43.6522 75.5652V30.1304C43.6522 27.8493 41.8029 26 39.5217 26Z" fill="#FFE1E6"/>
<path d="M37.174 50.9131H57.8261" stroke="#FF3F56" stroke-width="2"/>
<path d="M33.0435 22H20.6522C18.371 22 16.5217 23.8493 16.5217 26.1304V71.5652C16.5217 73.8464 18.371 75.6957 20.6522 75.6957H33.0435C35.3246 75.6957 37.1739 73.8464 37.1739 71.5652V26.1304C37.1739 23.8493 35.3246 22 33.0435 22Z" stroke="#19181B" stroke-width="2"/>
<path d="M16.5217 34.3914H8.26081C7.16535 34.3914 6.11475 34.8265 5.34015 35.6011C4.56554 36.3757 4.13037 37.4263 4.13037 38.5218V59.174C4.13037 60.2694 4.56554 61.32 5.34015 62.0946C6.11475 62.8692 7.16535 63.3044 8.26081 63.3044H16.5217" stroke="#19181B" stroke-width="2"/>
<path d="M4.13043 48.8479H0" stroke="#FF3F56" stroke-width="2"/>
<path opacity="0.8" d="M78.5217 28H66.1304C63.8493 28 62 29.8493 62 32.1304V77.5652C62 79.8464 63.8493 81.6957 66.1304 81.6957H78.5217C80.8029 81.6957 82.6522 79.8464 82.6522 77.5652V32.1304C82.6522 29.8493 80.8029 28 78.5217 28Z" fill="#FFE1E6"/>
<path d="M74.3478 22H61.9565C59.6753 22 57.826 23.8493 57.826 26.1304V71.5652C57.826 73.8464 59.6753 75.6957 61.9565 75.6957H74.3478C76.629 75.6957 78.4782 73.8464 78.4782 71.5652V26.1304C78.4782 23.8493 76.629 22 74.3478 22Z" stroke="#19181B" stroke-width="2"/>
<path d="M78.4783 34.3914H86.7391C87.8346 34.3914 88.8852 34.8265 89.6598 35.6011C90.4344 36.3757 90.8696 37.4263 90.8696 38.5218V59.174C90.8696 60.2694 90.4344 61.32 89.6598 62.0946C88.8852 62.8692 87.8346 63.3044 86.7391 63.3044H78.4783" stroke="#19181B" stroke-width="2"/>
<path d="M90.8696 48.8479H95.0001" stroke="#FF3F56" stroke-width="2"/>
</svg>
