<svg width="110" height="104" viewBox="0 0 110 104" fill="none" xmlns="http://www.w3.org/2000/svg">
<path opacity="0.8" d="M46.1 39C38.2496 39 30.7207 42.1186 25.1696 47.6696C19.6186 53.2207 16.5 60.7496 16.5 68.6C16.5 76.4504 19.6186 83.9793 25.1696 89.5304C30.7207 95.0814 38.2496 98.2 46.1 98.2C53.9504 98.2 61.4793 95.0814 67.0304 89.5304C72.5814 83.9793 75.7 76.4504 75.7 68.6C75.7 60.7496 72.5814 53.2207 67.0304 47.6696C61.4793 42.1186 53.9504 39 46.1 39V39Z" fill="#FFE1E6"/>
<path d="M38 34.6001C30.1496 34.6001 22.6207 37.7187 17.0697 43.2697C11.5186 48.8208 8.40002 56.3497 8.40002 64.2001C8.40002 72.0505 11.5186 79.5794 17.0697 85.1305C22.6207 90.6815 30.1496 93.8001 38 93.8001C45.8504 93.8001 53.3793 90.6815 58.9304 85.1305C64.4815 79.5794 67.6 72.0505 67.6 64.2001C67.6 56.3497 64.4815 48.8208 58.9304 43.2697C53.3793 37.7187 45.8504 34.6001 38 34.6001V34.6001Z" stroke="#19181B" stroke-width="2" stroke-miterlimit="10"/>
<path d="M56.2658 41.0633L75 5H53.725L38 34.6L22.275 5H1L19.7342 40.5949" stroke="#19181B" stroke-width="2" stroke-miterlimit="10" stroke-linejoin="round"/>
<path d="M38 53.1001V75.3001" stroke="#FF3F56" stroke-width="2" stroke-miterlimit="10"/>
</svg>
