<svg width="110" height="104" viewBox="0 0 110 104" fill="none" xmlns="http://www.w3.org/2000/svg">
<g opacity="0.7">
<path d="M63.0018 94.4656L23.797 54.0926C20.359 50.72 18.0839 46.3404 17.3014 41.5883C16.5189 36.8362 17.2694 31.9584 19.4444 27.6614C21.122 24.4059 23.5413 21.5904 26.5073 19.4421C29.4732 17.2938 32.9027 15.8728 36.5189 15.2938C40.1351 14.7149 43.8367 14.9942 47.3251 16.1092C50.8136 17.2242 53.991 19.1436 56.601 21.7127L63.0018 27.5494L69.4026 21.7127C72.0122 19.1436 75.1893 17.2241 78.6774 16.1091C82.1655 14.9941 85.8669 14.7148 89.4829 15.2938C93.0988 15.8728 96.528 17.2938 99.4935 19.4421C102.459 21.5905 104.878 24.406 106.555 27.6614C108.73 31.9581 109.481 36.8355 108.699 41.5875C107.917 46.3394 105.643 50.7191 102.207 54.0926L63.0018 94.4656Z" fill="#FFE1E6"/>
</g>
<path d="M47.0018 89.4656L7.79696 49.0926C4.35898 45.72 2.08395 41.3404 1.3014 36.5883C0.51886 31.8362 1.26944 26.9584 3.44443 22.6614C5.12195 19.4059 7.54131 16.5904 10.5073 14.4421C13.4732 12.2938 16.9027 10.8728 20.5189 10.2938C24.1351 9.71488 27.8367 9.99417 31.3251 11.1092C34.8136 12.2242 37.991 14.1436 40.601 16.7127L47.0018 22.5494L53.4026 16.7127C56.0122 14.1436 59.1893 12.2241 62.6774 11.1091C66.1655 9.99412 69.8669 9.71482 73.4829 10.2938C77.0988 10.8728 80.528 12.2938 83.4935 14.4421C86.4591 16.5905 88.8781 19.406 90.5551 22.6614C92.73 26.9581 93.4809 31.8355 92.6991 36.5875C91.9173 41.3394 89.6434 45.7191 86.2066 49.0926L47.0018 89.4656Z" stroke="#19181B" stroke-width="2" stroke-linecap="round" stroke-linejoin="round"/>
</svg>
