<svg width="204" height="46" viewBox="0 0 204 46" fill="none" xmlns="http://www.w3.org/2000/svg">
<rect x="45.9348" y="0.759735" width="44.9581" height="44.9581" rx="5.52774" transform="rotate(90 45.9348 0.759735)" fill="#19181B"/>
<path d="M23.4555 27.5474L28.3779 33.3053H35.7453L18.5336 13.1721H11.1662L19.7718 23.2385L11.1658 33.3053H18.5331L23.4555 27.5474Z" fill="white"/>
<path d="M28.3778 13.1721H35.7452L28.286 21.8975L24.6023 17.5885L28.3778 13.1721Z" fill="#FF3F56"/>
<path d="M55.3317 23.1218C55.3317 20.7303 55.8827 18.5849 56.9847 16.6857C58.1101 14.7865 59.6225 13.3093 61.5217 12.2542C63.4443 11.1756 65.5428 10.6363 67.8172 10.6363C70.4198 10.6363 72.7293 11.2811 74.7457 12.5707C76.7856 13.8368 78.2628 15.6423 79.1772 17.987H74.3589C73.7258 16.6974 72.8465 15.7361 71.7211 15.103C70.5956 14.4699 69.2943 14.1534 67.8172 14.1534C66.1993 14.1534 64.7573 14.5168 63.4912 15.2437C62.2251 15.9705 61.2286 17.0139 60.5017 18.3738C59.7983 19.7338 59.4466 21.3164 59.4466 23.1218C59.4466 24.9273 59.7983 26.5099 60.5017 27.8698C61.2286 29.2298 62.2251 30.2849 63.4912 31.0352C64.7573 31.762 66.1993 32.1255 67.8172 32.1255C69.2943 32.1255 70.5956 31.8089 71.7211 31.1759C72.8465 30.5428 73.7258 29.5815 74.3589 28.2919H79.1772C78.2628 30.6366 76.7856 32.442 74.7457 33.7081C72.7293 34.9743 70.4198 35.6073 67.8172 35.6073C65.5194 35.6073 63.4209 35.0798 61.5217 34.0247C59.6225 32.9461 58.1101 31.4572 56.9847 29.558C55.8827 27.6588 55.3317 25.5134 55.3317 23.1218Z" fill="#19181B"/>
<path d="M92.276 35.7128C90.4471 35.7128 88.7941 35.3025 87.317 34.4819C85.8398 33.6378 84.6792 32.4654 83.8351 30.9648C82.991 29.4408 82.5689 27.6823 82.5689 25.6893C82.5689 23.7197 83.0027 21.9729 83.8703 20.4489C84.7378 18.9248 85.9219 17.7525 87.4225 16.9318C88.9231 16.1112 90.5995 15.7009 92.4518 15.7009C94.3041 15.7009 95.9806 16.1112 97.4812 16.9318C98.9818 17.7525 100.166 18.9248 101.033 20.4489C101.901 21.9729 102.335 23.7197 102.335 25.6893C102.335 27.6588 101.889 29.4056 100.998 30.9297C100.107 32.4537 98.888 33.6378 97.3405 34.4819C95.8165 35.3025 94.1283 35.7128 92.276 35.7128ZM92.276 32.231C93.3077 32.231 94.269 31.9848 95.16 31.4924C96.0744 31 96.813 30.2614 97.3757 29.2767C97.9384 28.2919 98.2198 27.0961 98.2198 25.6893C98.2198 24.2825 97.9501 23.0984 97.4109 22.1371C96.8716 21.1523 96.1565 20.4137 95.2655 19.9213C94.3745 19.4289 93.4132 19.1828 92.3815 19.1828C91.3498 19.1828 90.3885 19.4289 89.4975 19.9213C88.63 20.4137 87.9383 21.1523 87.4225 22.1371C86.9066 23.0984 86.6487 24.2825 86.6487 25.6893C86.6487 27.7761 87.1763 29.3939 88.2314 30.5428C89.3099 31.6682 90.6581 32.231 92.276 32.231Z" fill="#19181B"/>
<path d="M104.962 25.6189C104.962 23.6728 105.36 21.9495 106.158 20.4489C106.978 18.9483 108.08 17.7877 109.464 16.967C110.87 16.1229 112.418 15.7009 114.106 15.7009C115.63 15.7009 116.955 16.0057 118.08 16.6153C119.229 17.2015 120.144 17.9401 120.824 18.831V16.0174H124.868V35.3963H120.824V32.5123C120.144 33.4268 119.218 34.1888 118.045 34.7984C116.873 35.408 115.536 35.7128 114.036 35.7128C112.371 35.7128 110.847 35.2908 109.464 34.4467C108.08 33.5792 106.978 32.3834 106.158 30.8593C105.36 29.3118 104.962 27.565 104.962 25.6189ZM120.824 25.6893C120.824 24.3528 120.542 23.1922 119.98 22.2074C119.44 21.2226 118.725 20.4723 117.834 19.9565C116.943 19.4407 115.982 19.1828 114.95 19.1828C113.919 19.1828 112.957 19.4407 112.066 19.9565C111.175 20.4489 110.448 21.1875 109.886 22.1722C109.346 23.1336 109.077 24.2825 109.077 25.6189C109.077 26.9554 109.346 28.1278 109.886 29.136C110.448 30.1442 111.175 30.9179 112.066 31.4572C112.981 31.9731 113.942 32.231 114.95 32.231C115.982 32.231 116.943 31.9731 117.834 31.4572C118.725 30.9414 119.44 30.1911 119.98 29.2063C120.542 28.1981 120.824 27.0258 120.824 25.6893Z" fill="#19181B"/>
<path d="M128.798 25.6893C128.798 23.6963 129.197 21.9495 129.994 20.4489C130.814 18.9248 131.94 17.7525 133.37 16.9318C134.8 16.1112 136.442 15.7009 138.294 15.7009C140.639 15.7009 142.573 16.2636 144.097 17.3891C145.645 18.4911 146.688 20.0737 147.227 22.1371H142.901C142.55 21.1757 141.987 20.4254 141.213 19.8862C140.439 19.3469 139.466 19.0772 138.294 19.0772C136.653 19.0772 135.34 19.6634 134.355 20.8358C133.394 21.9847 132.913 23.6025 132.913 25.6893C132.913 27.7761 133.394 29.4056 134.355 30.578C135.34 31.7503 136.653 32.3365 138.294 32.3365C140.615 32.3365 142.151 31.3165 142.901 29.2767H147.227C146.665 31.2462 145.609 32.8171 144.062 33.9895C142.514 35.1384 140.592 35.7128 138.294 35.7128C136.442 35.7128 134.8 35.3025 133.37 34.4819C131.94 33.6378 130.814 32.4654 129.994 30.9648C129.197 29.4408 128.798 27.6823 128.798 25.6893Z" fill="#19181B"/>
<path d="M161.247 15.7009C162.724 15.7009 164.037 16.0174 165.186 16.6505C166.358 17.2835 167.272 18.2214 167.929 19.4641C168.609 20.7068 168.949 22.2074 168.949 23.9659V35.3963H164.975V24.5638C164.975 22.8288 164.541 21.504 163.673 20.5896C162.806 19.6517 161.622 19.1828 160.121 19.1828C158.62 19.1828 157.425 19.6517 156.534 20.5896C155.666 21.504 155.232 22.8288 155.232 24.5638V35.3963H151.223V9.37021H155.232V18.2683C155.912 17.4477 156.768 16.8146 157.8 16.3691C158.855 15.9236 160.004 15.7009 161.247 15.7009Z" fill="#19181B"/>
<path d="M194.419 23.1922L202.015 35.3963H197.514L191.992 26.5334L186.822 35.3963H182.355L189.952 23.1922L182.32 10.9529H186.822L192.379 19.8862L197.584 10.9529H202.051L194.419 23.1922Z" fill="#19181B"/>
</svg>
