<svg width="110" height="104" viewBox="0 0 110 104" fill="none" xmlns="http://www.w3.org/2000/svg">
<path d="M41.75 10V25.9999C41.75 25.9999 48.75 18 61.7499 18C74.7498 18 81.7498 25.9999 81.7498 25.9999C81.7498 25.9999 73.7498 33.9999 61.7499 33.9999C49.75 33.9999 41.75 25.9999 41.75 25.9999" fill="#FFE1E6"/>
<path d="M40.9998 4V19.9999C40.9998 19.9999 47.9997 12 60.9997 12C73.9996 12 80.9996 19.9999 80.9996 19.9999C80.9996 19.9999 72.9996 27.9999 60.9997 27.9999C48.9997 27.9999 40.9998 19.9999 40.9998 19.9999" stroke="#FF3F56" stroke-width="2" stroke-miterlimit="10" stroke-linecap="round" stroke-linejoin="round"/>
<path d="M80.9996 52.0004C80.9996 72.1283 70.9997 100 54.3357 100C46.8318 100 44.3358 93.3362 40.9998 93.3362C37.6638 93.3362 35.1678 100 27.6639 100C11 100 1 72.1283 1 52.0004C1 37.6244 5.80798 26.2965 14.9439 21.6965C21.0559 18.6165 28.3439 20.1445 33.9998 24.0005C36.2238 25.5205 38.1998 28.0005 40.9998 28.0005" stroke="#19181B" stroke-width="2" stroke-miterlimit="10" stroke-linecap="round" stroke-linejoin="round"/>
<path d="M52.7499 54L53.1613 53.7159L52.7499 53.1201L52.3385 53.7159L52.7499 54ZM52.7499 54C53.1613 53.7159 53.1614 53.7159 53.1614 53.716L53.1616 53.7163L53.1623 53.7172L53.1646 53.7207L53.1736 53.7337L53.2079 53.7839C53.2378 53.8277 53.2814 53.8919 53.3367 53.9742C53.4474 54.1388 53.6051 54.3759 53.7942 54.6672C54.1722 55.2493 54.677 56.0497 55.1824 56.9211C55.6869 57.7909 56.1971 58.7398 56.5827 59.6173C56.9592 60.4743 57.2499 61.3344 57.2499 62C57.2499 64.4841 55.234 66.4999 52.7499 66.4999C50.2658 66.4999 48.2499 64.4841 48.2499 62C48.2499 61.3344 48.5406 60.4743 48.9172 59.6173C49.3027 58.7398 49.8129 57.7909 50.3174 56.9211C50.8229 56.0497 51.3276 55.2493 51.7056 54.6672C51.8947 54.3759 52.0524 54.1388 52.1631 53.9742C52.2184 53.8919 52.262 53.8277 52.2919 53.7839L52.3262 53.7337L52.3352 53.7207L52.3376 53.7172L52.3382 53.7163L52.3384 53.716C52.3384 53.7159 52.3385 53.7159 52.7499 54ZM36.75 54L37.1614 53.7159L36.75 53.1201L36.3386 53.7159L36.75 54ZM36.75 54C37.1614 53.7159 37.1614 53.7159 37.1615 53.716L37.1617 53.7163L37.1623 53.7172L37.1647 53.7207L37.1737 53.7337L37.208 53.7839C37.2379 53.8277 37.2815 53.8919 37.3368 53.9742C37.4475 54.1388 37.6052 54.3759 37.7943 54.6672C38.1723 55.2493 38.677 56.0497 39.1825 56.9211C39.687 57.7909 40.1972 58.7398 40.5827 59.6173C40.9593 60.4743 41.25 61.3344 41.25 62C41.25 64.4841 39.2341 66.4999 36.75 66.4999C34.2658 66.4999 32.25 64.4841 32.25 62C32.25 61.3344 32.5407 60.4743 32.9172 59.6173C33.3028 58.7398 33.813 57.7909 34.3175 56.9211C34.8229 56.0497 35.3277 55.2493 35.7056 54.6672C35.8948 54.3759 36.0525 54.1388 36.1632 53.9742C36.2185 53.8919 36.2621 53.8277 36.292 53.7839L36.3263 53.7337L36.3353 53.7207L36.3376 53.7172L36.3383 53.7163L36.3385 53.716C36.3385 53.7159 36.3386 53.7159 36.75 54Z" fill="#FFE1E6" stroke="#FFE1E6"/>
<path d="M48.9998 51.9998L49.8226 51.4315L48.9998 50.24L48.1769 51.4315L48.9998 51.9998ZM48.9998 51.9998C49.8226 51.4315 49.8227 51.4316 49.8228 51.4317L49.823 51.432L49.8238 51.4331L49.8263 51.4369L49.8357 51.4505L49.8709 51.5019C49.9013 51.5466 49.9456 51.6117 50.0015 51.695C50.1135 51.8615 50.2727 52.1009 50.4635 52.3946C50.8444 52.9813 51.3539 53.7892 51.8648 54.67C52.3738 55.5475 52.8942 56.5144 53.2903 57.416C53.6684 58.2764 53.9998 59.2205 53.9998 59.9997C53.9998 62.76 51.7601 64.9997 48.9998 64.9997C46.2395 64.9997 43.9998 62.76 43.9998 59.9997C43.9998 59.2205 44.3312 58.2764 44.7093 57.416C45.1054 56.5144 45.6258 55.5475 46.1348 54.67C46.6457 53.7892 47.1551 52.9813 47.5361 52.3946C47.7269 52.1009 47.8861 51.8615 47.998 51.695C48.054 51.6117 48.0982 51.5466 48.1287 51.5019L48.1638 51.4505L48.1732 51.4369L48.1758 51.4331L48.1766 51.432L48.1768 51.4317C48.1769 51.4316 48.1769 51.4315 48.9998 51.9998ZM32.9999 51.9998L33.8227 51.4315L32.9999 50.24L32.177 51.4315L32.9999 51.9998ZM32.9999 51.9998C33.8227 51.4315 33.8228 51.4316 33.8228 51.4317L33.8231 51.432L33.8238 51.4331L33.8264 51.4369L33.8358 51.4505L33.871 51.5019C33.9014 51.5466 33.9456 51.6117 34.0016 51.695C34.1136 51.8615 34.2728 52.1009 34.4635 52.3946C34.8445 52.9813 35.354 53.7892 35.8649 54.67C36.3739 55.5475 36.8942 56.5144 37.2904 57.416C37.6684 58.2764 37.9998 59.2205 37.9998 59.9997C37.9998 62.76 35.7601 64.9997 32.9999 64.9997C30.2396 64.9997 27.9999 62.76 27.9999 59.9997C27.9999 59.2205 28.3313 58.2764 28.7093 57.416C29.1055 56.5144 29.6259 55.5475 30.1349 54.67C30.6457 53.7892 31.1552 52.9813 31.5362 52.3946C31.7269 52.1009 31.8862 51.8615 31.9981 51.695C32.0541 51.6117 32.0983 51.5466 32.1288 51.5019L32.1639 51.4505L32.1733 51.4369L32.1759 51.4331L32.1766 51.432L32.1769 51.4317C32.1769 51.4316 32.177 51.4315 32.9999 51.9998Z" stroke="#FF3F56" stroke-width="2"/>
</svg>
