<svg width="110" height="104" viewBox="0 0 110 104" fill="none" xmlns="http://www.w3.org/2000/svg">
<path opacity="0.8" d="M52.258 52.1334C52.5565 51.9994 52.8908 51.9652 53.2106 52.036C53.5304 52.1067 53.8184 52.2786 54.0313 52.5256C54.2442 52.7727 54.3705 53.0817 54.3911 53.4061C54.4118 53.7305 54.3258 54.0528 54.1459 54.3245C52.2997 57.2024 51.2564 60.5149 51.1224 63.9236C50.9885 67.3323 51.7687 70.7153 53.3835 73.727C55.3219 72.3669 56.8375 70.4952 57.7584 68.3241C57.8292 68.1204 57.9431 67.9342 58.0926 67.7779C58.242 67.6216 58.4235 67.499 58.6248 67.4182C58.8261 67.3374 59.0425 67.3004 59.2594 67.3096C59.4763 67.3188 59.6888 67.3741 59.8823 67.4717C62.8134 69.0129 65.2309 71.3645 66.842 74.2415C68.453 77.1184 69.1884 80.3972 68.9589 83.6804C69.0059 86.1 68.5598 88.5041 67.6475 90.7485C66.7352 92.9929 65.3754 95.0315 63.6497 96.7419C61.924 98.4523 59.8679 99.7993 57.6047 100.702C55.3415 101.605 52.9178 102.045 50.479 101.996C48.0119 101.986 45.5717 101.487 43.301 100.53C41.0303 99.573 38.9748 98.1763 37.2547 96.4217C35.5346 94.6671 34.1843 92.5898 33.283 90.3114C32.3816 88.033 31.9472 85.5991 32.0051 83.1521C32.0892 76.6132 34.0353 70.2312 37.6189 64.7427C41.2025 59.2542 46.2774 54.8829 52.258 52.1334V52.1334Z" fill="#FFE1E6"/>
<path d="M81.1407 57.1565C81.1261 67.5908 77.043 77.6081 69.7593 85.0795C62.4755 92.5509 52.5653 96.8874 42.1348 97.1674C31.7042 97.4473 21.5757 93.6487 13.9016 86.5788C6.2276 79.5088 1.61308 69.725 1.03878 59.3065C1.00009 58.5935 1.00009 57.875 1.00009 57.1565C0.977848 46.819 4.97535 36.8778 12.1479 29.4334C12.4663 29.1019 12.8624 28.8549 13.3003 28.7151C13.7383 28.5752 14.2041 28.5468 14.6558 28.6324C15.1075 28.718 15.5306 28.915 15.887 29.2054C16.2433 29.4958 16.5216 29.8705 16.6966 30.2956C18.3035 34.1923 20.524 37.8066 23.2736 41.0013C26.6598 34.9893 28.4325 28.2033 28.4192 21.3033C28.4287 15.9918 27.3823 10.7314 25.3407 5.82789C25.1401 5.34718 25.0794 4.81956 25.1656 4.30586C25.2519 3.79215 25.4816 3.31329 25.8282 2.92448C26.1749 2.53567 26.6243 2.25274 27.1248 2.10833C27.6253 1.96391 28.1564 1.96389 28.6569 2.10826C39.0588 5.02445 48.2824 11.1335 55.0259 19.5734C62.3929 28.7284 66.3979 40.1328 66.3727 51.8838C66.3802 52.2529 66.3655 52.622 66.3285 52.9892C69.8349 51.8601 73.1611 50.2333 76.2051 48.1587C76.5849 47.9001 77.0232 47.7403 77.4803 47.6937C77.9374 47.6471 78.3989 47.7153 78.823 47.8919C79.2472 48.0686 79.6206 48.3483 79.9095 48.7056C80.1983 49.0629 80.3935 49.4866 80.4774 49.9384C80.9176 52.3192 81.1396 54.7353 81.1407 57.1565Z" stroke="#19181B" stroke-width="2" stroke-linecap="round" stroke-linejoin="round"/>
<path d="M42.6952 51.32C42.9679 51.1967 43.2732 51.1653 43.5653 51.2304C43.8574 51.2955 44.1205 51.4537 44.3149 51.6812C44.5094 51.9087 44.6247 52.1932 44.6436 52.4918C44.6625 52.7905 44.5839 53.0872 44.4196 53.3374C42.7333 55.9869 41.7804 59.0365 41.658 62.1748C41.5357 65.3131 42.2483 68.4276 43.7232 71.2004C45.4938 69.9482 46.8781 68.225 47.7192 66.2262C47.7838 66.0387 47.8879 65.8672 48.0244 65.7233C48.1609 65.5794 48.3267 65.4665 48.5105 65.3921C48.6944 65.3178 48.892 65.2837 49.0902 65.2922C49.2883 65.3006 49.4823 65.3515 49.6592 65.4414C52.3363 66.8604 54.5445 69.0254 56.0159 71.6741C57.4874 74.3227 58.1591 77.3414 57.9496 80.3641C57.9924 82.5917 57.585 84.8051 56.7517 86.8714C55.9184 88.9377 54.6764 90.8145 53.1002 92.3892C51.524 93.9639 49.6459 95.204 47.5788 96.0353C45.5116 96.8666 43.2979 97.2718 41.0703 97.2268C38.8169 97.2171 36.588 96.7582 34.514 95.877C32.4401 94.9958 30.5626 93.7098 28.9915 92.0944C27.4203 90.479 26.187 88.5666 25.3637 86.4689C24.5404 84.3713 24.1436 82.1305 24.1966 79.8777C24.2733 73.8576 26.0509 67.982 29.3241 62.9289C32.5973 57.8759 37.2327 53.8514 42.6952 51.32V51.32Z" stroke="#FF3F56" stroke-width="2" stroke-linecap="round" stroke-linejoin="round"/>
</svg>
