<svg width="110" height="104" viewBox="0 0 110 104" fill="none" xmlns="http://www.w3.org/2000/svg">
<path opacity="0.7" d="M62.7778 10.2778C50.6368 10.2778 38.993 15.1008 30.408 23.6858C21.823 32.2708 17 43.9146 17 56.0556C17 68.1966 21.823 79.8404 30.408 88.4254C38.993 97.0104 50.6368 101.833 62.7778 101.833C74.9188 101.833 86.5626 97.0104 95.1476 88.4254C103.733 79.8404 108.556 68.1966 108.556 56.0556C108.556 43.9146 103.733 32.2708 95.1476 23.6858C86.5626 15.1008 74.9188 10.2778 62.7778 10.2778V10.2778Z" fill="#FFE1E6"/>
<path d="M46.7778 3C34.6368 3 22.993 7.823 14.408 16.408C5.823 24.993 1 36.6368 1 48.7778C1 60.9188 5.823 72.5626 14.408 81.1476C22.993 89.7326 34.6368 94.5556 46.7778 94.5556C58.9188 94.5556 70.5626 89.7326 79.1476 81.1476C87.7326 72.5626 92.5556 60.9188 92.5556 48.7778C92.5556 36.6368 87.7326 24.993 79.1476 16.408C70.5626 7.823 58.9188 3 46.7778 3V3Z" stroke="#19181B" stroke-width="2" stroke-miterlimit="10"/>
<path d="M68.0183 34.0728L42.8863 59.1933L33.4246 49.7316" stroke="#FF3F56" stroke-width="2" stroke-miterlimit="10"/>
</svg>
